<?xml version="1.0" standalone="no"?>
<!DOCTYPE svg PUBLIC "-//W3C//DTD SVG 20010904//EN"
 "http://www.w3.org/TR/2001/REC-SVG-20010904/DTD/svg10.dtd">
<svg version="1.0" xmlns="http://www.w3.org/2000/svg"
 width="574.000000pt" height="574.000000pt" viewBox="0 0 574.000000 574.000000"
 preserveAspectRatio="xMidYMid meet">
<metadata>
Created by potrace 1.14, written by Peter Selinger 2001-2017
</metadata>
<g transform="translate(0.000000,574.000000) scale(0.100000,-0.100000)"
fill="#000000" stroke="none">
<path d="M3083 5634 c-28 -7 -66 -22 -84 -33 -26 -16 -36 -18 -53 -8 -12 6
-23 12 -26 12 -3 1 -18 8 -35 15 -18 8 -73 13 -135 14 -91 1 -110 -2 -145 -21
-59 -33 -82 -56 -100 -100 -14 -34 -20 -39 -52 -41 -84 -6 -171 -71 -214 -158
-16 -34 -20 -58 -17 -102 2 -40 -1 -56 -9 -55 -21 4 -80 -26 -112 -57 -40 -41
-58 -80 -71 -161 -25 -145 5 -257 89 -330 l46 -41 1 -156 c0 -134 6 -278 19
-484 4 -64 -30 -290 -56 -368 -48 -146 -141 -312 -232 -415 -10 -11 -32 -38
-48 -60 -16 -22 -53 -71 -82 -110 -207 -278 -377 -610 -442 -865 -35 -135 -38
-159 -39 -311 l-1 -136 -30 -34 c-16 -19 -55 -67 -85 -107 -58 -77 -91 -98
-261 -166 -142 -57 -207 -182 -178 -341 29 -157 28 -201 -7 -320 -44 -148 -27
-262 47 -318 56 -42 146 -71 254 -82 33 -3 72 -8 87 -11 14 -3 43 -7 65 -9 61
-7 130 -18 178 -29 54 -12 137 -43 212 -80 145 -71 288 -109 411 -108 34 0 63
1 65 2 1 1 13 3 27 4 114 9 247 93 296 188 8 15 20 28 27 29 40 2 101 11 169
24 249 49 357 54 573 24 83 -11 185 -20 227 -20 l77 0 33 -67 c44 -90 136
-182 214 -213 85 -34 251 -34 344 0 112 41 200 103 316 222 138 140 190 178
399 284 251 129 293 167 302 273 5 55 -15 126 -46 165 -53 64 -128 167 -137
187 -19 41 -33 83 -39 115 -9 55 -42 160 -63 201 -21 41 -69 87 -110 107 -20
9 -23 16 -18 42 3 16 14 71 25 120 55 269 -20 619 -201 934 -26 46 -48 85 -48
86 0 16 -248 355 -281 385 -22 20 -204 268 -237 324 -44 73 -98 195 -106 239
-2 15 -8 32 -11 38 -4 6 -9 142 -10 302 -3 336 -13 466 -47 608 -10 41 -9 50
9 75 36 50 56 129 50 190 -7 66 -38 123 -101 182 -37 35 -44 47 -37 65 12 35
13 130 1 161 -5 15 -20 37 -33 47 -26 23 -115 69 -133 69 -6 0 -17 13 -24 29
-18 45 -89 112 -145 137 -62 29 -153 36 -222 18z"/>
</g>
</svg>
